<svg xmlns="http://www.w3.org/2000/svg" viewBox="0 0 48 48" fill="none">
  <defs>
    <linearGradient id="g" x1="10" y1="6" x2="38" y2="42" gradientUnits="userSpaceOnUse">
      <stop stop-color="oklch(0.9 0.1 95)"/>
      <stop offset="0.5" stop-color="oklch(0.8 0.13 80)"/>
      <stop offset="1" stop-color="oklch(0.62 0.14 60)"/>
    </linearGradient>
    <linearGradient id="gd" x1="24" y1="3" x2="24" y2="22" gradientUnits="userSpaceOnUse">
      <stop stop-color="oklch(0.92 0.09 93)"/>
      <stop offset="1" stop-color="oklch(0.74 0.14 75)"/>
    </linearGradient>
    <linearGradient id="s" x1="8" y1="4" x2="40" y2="44" gradientUnits="userSpaceOnUse">
      <stop stop-color="oklch(0.27 0.014 255)"/>
      <stop offset="1" stop-color="oklch(0.17 0.012 260)"/>
    </linearGradient>
    <linearGradient id="sh" x1="24" y1="4" x2="24" y2="20" gradientUnits="userSpaceOnUse">
      <stop stop-color="oklch(0.99 0.005 95 / 0.12)"/>
      <stop offset="1" stop-color="oklch(0.99 0.005 95 / 0)"/>
    </linearGradient>
  </defs>
  <path d="M24 3.5 41 9.2 V23.5 C41 33 34.2 39.8 24 43.6 13.8 39.8 7 33 7 23.5 V9.2 Z" fill="url(#s)"/>
  <path d="M24 3.5 41 9.2 V23.5 C41 33 34.2 39.8 24 43.6 13.8 39.8 7 33 7 23.5 V9.2 Z" fill="url(#sh)"/>
  <path d="M24 3.5 41 9.2 V23.5 C41 33 34.2 39.8 24 43.6 13.8 39.8 7 33 7 23.5 V9.2 Z" fill="none" stroke="url(#g)" stroke-width="0.9" stroke-opacity="0.6"/>
  <g stroke="url(#g)" stroke-width="2.7" stroke-linecap="round" stroke-linejoin="round" fill="none">
    <path d="M13.5 33.5 V17.5 L18.5 25.5 L23.5 17.5 V33.5"/>
    <path d="M26.5 33.5 V17.5 H31 C33.2 17.5 33.2 22.5 31 22.5 H26.5"/>
    <path d="M29.5 22.5 L33.5 33.5"/>
  </g>
  <g stroke="url(#gd)" stroke-width="1.7" stroke-linecap="round" stroke-linejoin="round" fill="none">
    <path d="M24 22 V9.5"/>
    <path d="M21.4 12.3 L24 9.5 L26.6 12.3"/>
  </g>
  <path d="M24 3.6 L26 6.4 L24 9.2 L22 6.4 Z" fill="url(#gd)"/>
  <path d="M24 3.6 L26 6.4 L24 9.2 L22 6.4 Z" fill="none" stroke="oklch(0.95 0.06 95 / 0.6)" stroke-width="0.45"/>
</svg>
